<mxfile host="Electron" agent="Mozilla/5.0 (Macintosh; Intel Mac OS X 10_15_7) AppleWebKit/537.36 (KHTML, like Gecko) draw.io/24.7.17 Chrome/128.0.6613.36 Electron/32.0.1 Safari/537.36" version="24.7.17">
  <diagram name="Page-1" id="KLtd4MFQh9ZuT6rouaQ0">
    <mxGraphModel dx="2460" dy="1645" grid="1" gridSize="10" guides="1" tooltips="1" connect="1" arrows="1" fold="1" page="1" pageScale="1" pageWidth="850" pageHeight="1100" math="0" shadow="0">
      <root>
        <mxCell id="0" />
        <mxCell id="1" parent="0" />
        <mxCell id="6oquI3iziqroKtysEFZ_-3" value="" style="edgeStyle=orthogonalEdgeStyle;rounded=0;orthogonalLoop=1;jettySize=auto;html=1;" parent="1" source="6oquI3iziqroKtysEFZ_-1" edge="1">
          <mxGeometry relative="1" as="geometry">
            <mxPoint x="581" y="167" as="targetPoint" />
          </mxGeometry>
        </mxCell>
        <mxCell id="6oquI3iziqroKtysEFZ_-1" value="Patient has upper airway symptoms" style="ellipse;whiteSpace=wrap;html=1;aspect=fixed;" parent="1" vertex="1">
          <mxGeometry x="521" y="17" width="120" height="120" as="geometry" />
        </mxCell>
        <mxCell id="6oquI3iziqroKtysEFZ_-6" style="rounded=0;orthogonalLoop=1;jettySize=auto;html=1;exitX=1;exitY=1;exitDx=0;exitDy=0;strokeColor=none;" parent="1" source="6oquI3iziqroKtysEFZ_-13" edge="1">
          <mxGeometry relative="1" as="geometry">
            <mxPoint x="681" y="477" as="targetPoint" />
          </mxGeometry>
        </mxCell>
        <mxCell id="6oquI3iziqroKtysEFZ_-8" style="rounded=0;orthogonalLoop=1;jettySize=auto;html=1;exitX=1;exitY=1;exitDx=0;exitDy=0;" parent="1" edge="1">
          <mxGeometry relative="1" as="geometry">
            <mxPoint x="731" y="280" as="targetPoint" />
            <mxPoint x="699.755" y="280" as="sourcePoint" />
          </mxGeometry>
        </mxCell>
        <mxCell id="6oquI3iziqroKtysEFZ_-74" style="rounded=0;orthogonalLoop=1;jettySize=auto;html=1;exitX=0;exitY=0;exitDx=0;exitDy=0;" parent="1" source="6oquI3iziqroKtysEFZ_-2" edge="1">
          <mxGeometry relative="1" as="geometry">
            <mxPoint x="460" y="80" as="targetPoint" />
          </mxGeometry>
        </mxCell>
        <mxCell id="6oquI3iziqroKtysEFZ_-2" value="&lt;div style=&quot;&quot; title=&quot;Page 9&quot; class=&quot;page&quot;&gt;&lt;div class=&quot;section&quot;&gt;&lt;div style=&quot;font-size: 11px;&quot; class=&quot;layoutArea&quot;&gt;&lt;div class=&quot;column&quot;&gt;&lt;p&gt;&lt;font style=&quot;font-size: 10px;&quot; face=&quot;Helvetica&quot;&gt;&lt;br&gt;&lt;/font&gt;&lt;/p&gt;&lt;p&gt;&lt;font size=&quot;3&quot; face=&quot;snFoD3K1AjaC0ciIZpy_&quot;&gt;&lt;br&gt;&lt;/font&gt;&lt;/p&gt;&lt;p&gt;&lt;font size=&quot;3&quot; face=&quot;snFoD3K1AjaC0ciIZpy_&quot;&gt;&lt;br&gt;&lt;/font&gt;&lt;/p&gt;&lt;p&gt;&lt;font size=&quot;3&quot; face=&quot;snFoD3K1AjaC0ciIZpy_&quot;&gt;&lt;br&gt;&lt;/font&gt;&lt;/p&gt;&lt;p&gt;&lt;span style=&quot;font-family: snFoD3K1AjaC0ciIZpy_; background-color: initial;&quot;&gt;(&lt;b&gt;Purulent nasal discharge&amp;nbsp;&lt;/b&gt;&lt;/span&gt;&lt;b&gt;&lt;br&gt;&lt;/b&gt;&lt;/p&gt;&lt;p style=&quot;&quot;&gt;&lt;font style=&quot;font-size: 11px;&quot; face=&quot;snFoD3K1AjaC0ciIZpy_&quot;&gt;AND (&lt;b&gt;nasal obstruction&lt;/b&gt; or &lt;b&gt;facial&lt;/b&gt;&lt;/font&gt;&lt;/p&gt;&lt;p style=&quot;&quot;&gt;&lt;font style=&quot;font-size: 11px;&quot; face=&quot;snFoD3K1AjaC0ciIZpy_&quot;&gt;&lt;b&gt;pain-pressure-fullness&lt;/b&gt;));&lt;/font&gt;&lt;/p&gt;&lt;p style=&quot;&quot;&gt;&lt;font style=&quot;font-size: 11px;&quot; face=&quot;snFoD3K1AjaC0ciIZpy_&quot;&gt;OR(&amp;nbsp;&lt;b&gt;&lt;span style=&quot;background-color: rgb(255, 255, 255); caret-color: rgb(71, 71, 71);&quot;&gt;≥2 &lt;/span&gt;&lt;span style=&quot;background-color: rgb(255, 255, 255); caret-color: rgb(71, 71, 71);&quot;&gt;&lt;font style=&quot;font-size: 11px;&quot;&gt;major&lt;/font&gt;&lt;/span&gt;&lt;/b&gt;&lt;span style=&quot;background-color: initial;&quot;&gt;&lt;b&gt;&amp;nbsp;&lt;/b&gt;or &lt;b&gt;1 major&amp;nbsp;&lt;/b&gt;&lt;/span&gt;&lt;/font&gt;&lt;/p&gt;&lt;p style=&quot;&quot;&gt;&lt;font style=&quot;font-size: 11px;&quot; face=&quot;snFoD3K1AjaC0ciIZpy_&quot;&gt;&lt;b&gt;&lt;span style=&quot;background-color: initial;&quot;&gt;and&amp;nbsp;&amp;nbsp;&lt;/span&gt;&lt;span style=&quot;background-color: rgb(255, 255, 255); caret-color: rgb(71, 71, 71);&quot;&gt;≥2 &lt;/span&gt;&lt;/b&gt;&lt;span style=&quot;background-color: rgb(255, 255, 255); caret-color: rgb(71, 71, 71);&quot;&gt;&lt;b&gt;minor &lt;/b&gt;symptoms)&lt;/span&gt;&lt;/font&gt;&lt;/p&gt;&lt;font size=&quot;3&quot; face=&quot;snFoD3K1AjaC0ciIZpy_&quot;&gt;&lt;br&gt;&#x9;&#x9;&lt;br&gt;&#x9;&lt;br&gt;&#x9;&lt;br&gt;&#x9;&#x9;&lt;/font&gt;&lt;p&gt;&lt;font size=&quot;3&quot; face=&quot;snFoD3K1AjaC0ciIZpy_&quot;&gt;&amp;nbsp; &amp;nbsp; &amp;nbsp; &amp;nbsp; &amp;nbsp; &amp;nbsp; &amp;nbsp;&lt;/font&gt;&lt;/p&gt;&lt;/div&gt;&lt;/div&gt;&lt;/div&gt;&lt;/div&gt;" style="rhombus;whiteSpace=wrap;html=1;" parent="1" vertex="1">
          <mxGeometry x="461" y="170" width="229" height="220" as="geometry" />
        </mxCell>
        <mxCell id="6oquI3iziqroKtysEFZ_-75" style="edgeStyle=orthogonalEdgeStyle;rounded=0;orthogonalLoop=1;jettySize=auto;html=1;exitX=0;exitY=0.5;exitDx=0;exitDy=0;" parent="1" source="6oquI3iziqroKtysEFZ_-9" edge="1">
          <mxGeometry relative="1" as="geometry">
            <mxPoint x="350" y="65" as="targetPoint" />
          </mxGeometry>
        </mxCell>
        <mxCell id="6oquI3iziqroKtysEFZ_-9" value="yes" style="rounded=1;whiteSpace=wrap;html=1;arcSize=29;" parent="1" vertex="1">
          <mxGeometry x="400" y="50" width="50" height="30" as="geometry" />
        </mxCell>
        <mxCell id="6oquI3iziqroKtysEFZ_-19" style="rounded=0;orthogonalLoop=1;jettySize=auto;html=1;exitX=1;exitY=1;exitDx=0;exitDy=0;" parent="1" source="6oquI3iziqroKtysEFZ_-17" edge="1">
          <mxGeometry relative="1" as="geometry">
            <mxPoint x="304" y="160" as="targetPoint" />
          </mxGeometry>
        </mxCell>
        <mxCell id="6oquI3iziqroKtysEFZ_-76" style="edgeStyle=orthogonalEdgeStyle;rounded=0;orthogonalLoop=1;jettySize=auto;html=1;exitX=0;exitY=0.5;exitDx=0;exitDy=0;" parent="1" source="6oquI3iziqroKtysEFZ_-17" edge="1">
          <mxGeometry relative="1" as="geometry">
            <mxPoint x="160.00000000000023" y="65" as="targetPoint" />
          </mxGeometry>
        </mxCell>
        <mxCell id="6oquI3iziqroKtysEFZ_-17" value="Duration&amp;nbsp;&lt;div&gt;&lt;span style=&quot;font-size: 16px; text-align: start; caret-color: rgb(71, 71, 71); color: rgb(71, 71, 71); font-family: &amp;quot;Google Sans&amp;quot;, Arial, sans-serif; background-color: rgb(255, 255, 255);&quot;&gt;≤ 4&amp;nbsp;&lt;/span&gt;weeks&lt;/div&gt;" style="rhombus;whiteSpace=wrap;html=1;" parent="1" vertex="1">
          <mxGeometry x="201" y="5" width="137.25" height="120" as="geometry" />
        </mxCell>
        <mxCell id="6oquI3iziqroKtysEFZ_-23" style="rounded=0;orthogonalLoop=1;jettySize=auto;html=1;exitX=0.5;exitY=1;exitDx=0;exitDy=0;" parent="1" source="6oquI3iziqroKtysEFZ_-20" edge="1">
          <mxGeometry relative="1" as="geometry">
            <mxPoint x="119" y="130" as="targetPoint" />
          </mxGeometry>
        </mxCell>
        <mxCell id="6oquI3iziqroKtysEFZ_-20" value="yes" style="rounded=1;whiteSpace=wrap;html=1;" parent="1" vertex="1">
          <mxGeometry x="93.5" y="50" width="50" height="30" as="geometry" />
        </mxCell>
        <mxCell id="6oquI3iziqroKtysEFZ_-45" style="rounded=0;orthogonalLoop=1;jettySize=auto;html=1;exitX=1;exitY=1;exitDx=0;exitDy=0;" parent="1" source="6oquI3iziqroKtysEFZ_-21" edge="1">
          <mxGeometry relative="1" as="geometry">
            <mxPoint x="350" y="250" as="targetPoint" />
          </mxGeometry>
        </mxCell>
        <mxCell id="6oquI3iziqroKtysEFZ_-21" value="no" style="rounded=1;whiteSpace=wrap;html=1;" parent="1" vertex="1">
          <mxGeometry x="280" y="170" width="50" height="30" as="geometry" />
        </mxCell>
        <mxCell id="6oquI3iziqroKtysEFZ_-24" style="rounded=0;orthogonalLoop=1;jettySize=auto;html=1;exitX=0;exitY=1;exitDx=0;exitDy=0;" parent="1" source="6oquI3iziqroKtysEFZ_-22" edge="1">
          <mxGeometry relative="1" as="geometry">
            <mxPoint x="60" y="270" as="targetPoint" />
          </mxGeometry>
        </mxCell>
        <mxCell id="6oquI3iziqroKtysEFZ_-26" style="rounded=0;orthogonalLoop=1;jettySize=auto;html=1;exitX=1;exitY=1;exitDx=0;exitDy=0;" parent="1" source="6oquI3iziqroKtysEFZ_-22" edge="1">
          <mxGeometry relative="1" as="geometry">
            <mxPoint x="180" y="270" as="targetPoint" />
          </mxGeometry>
        </mxCell>
        <mxCell id="6oquI3iziqroKtysEFZ_-22" value="Bacterial infection suspicion?" style="rhombus;whiteSpace=wrap;html=1;" parent="1" vertex="1">
          <mxGeometry x="46" y="137" width="145" height="120" as="geometry" />
        </mxCell>
        <mxCell id="6oquI3iziqroKtysEFZ_-28" style="rounded=0;orthogonalLoop=1;jettySize=auto;html=1;exitX=0.5;exitY=1;exitDx=0;exitDy=0;" parent="1" source="6oquI3iziqroKtysEFZ_-25" edge="1">
          <mxGeometry relative="1" as="geometry">
            <mxPoint x="45" y="360" as="targetPoint" />
          </mxGeometry>
        </mxCell>
        <mxCell id="6oquI3iziqroKtysEFZ_-25" value="yes" style="rounded=1;whiteSpace=wrap;html=1;" parent="1" vertex="1">
          <mxGeometry x="20" y="280" width="50" height="30" as="geometry" />
        </mxCell>
        <mxCell id="6oquI3iziqroKtysEFZ_-34" style="edgeStyle=orthogonalEdgeStyle;rounded=0;orthogonalLoop=1;jettySize=auto;html=1;exitX=0.5;exitY=1;exitDx=0;exitDy=0;" parent="1" source="6oquI3iziqroKtysEFZ_-27" edge="1">
          <mxGeometry relative="1" as="geometry">
            <mxPoint x="176" y="360" as="targetPoint" />
          </mxGeometry>
        </mxCell>
        <mxCell id="6oquI3iziqroKtysEFZ_-27" value="no" style="rounded=1;whiteSpace=wrap;html=1;" parent="1" vertex="1">
          <mxGeometry x="151" y="280" width="50" height="30" as="geometry" />
        </mxCell>
        <mxCell id="6oquI3iziqroKtysEFZ_-82" style="rounded=0;orthogonalLoop=1;jettySize=auto;html=1;exitX=0.5;exitY=1;exitDx=0;exitDy=0;" parent="1" source="6oquI3iziqroKtysEFZ_-29" edge="1">
          <mxGeometry relative="1" as="geometry">
            <mxPoint x="80" y="620" as="targetPoint" />
          </mxGeometry>
        </mxCell>
        <mxCell id="6oquI3iziqroKtysEFZ_-29" value="&lt;b&gt;&amp;nbsp; &amp;nbsp; &amp;nbsp; &amp;nbsp; Diagnosis&lt;/b&gt;: &amp;nbsp; &amp;nbsp; &amp;nbsp; &amp;nbsp; acute bacterial rhinosinusitis" style="rounded=1;whiteSpace=wrap;html=1;align=center;" parent="1" vertex="1">
          <mxGeometry x="10" y="369" width="120" height="60" as="geometry" />
        </mxCell>
        <mxCell id="6oquI3iziqroKtysEFZ_-36" style="edgeStyle=orthogonalEdgeStyle;rounded=0;orthogonalLoop=1;jettySize=auto;html=1;exitX=0.5;exitY=1;exitDx=0;exitDy=0;" parent="1" source="6oquI3iziqroKtysEFZ_-13" edge="1">
          <mxGeometry relative="1" as="geometry">
            <mxPoint x="766" y="320" as="targetPoint" />
          </mxGeometry>
        </mxCell>
        <mxCell id="6oquI3iziqroKtysEFZ_-13" value="no" style="rounded=1;whiteSpace=wrap;html=1;" parent="1" vertex="1">
          <mxGeometry x="741" y="265" width="50" height="30" as="geometry" />
        </mxCell>
        <mxCell id="6oquI3iziqroKtysEFZ_-44" style="edgeStyle=orthogonalEdgeStyle;rounded=0;orthogonalLoop=1;jettySize=auto;html=1;exitX=0.5;exitY=1;exitDx=0;exitDy=0;" parent="1" source="6oquI3iziqroKtysEFZ_-35" edge="1">
          <mxGeometry relative="1" as="geometry">
            <mxPoint x="204" y="470" as="targetPoint" />
          </mxGeometry>
        </mxCell>
        <mxCell id="6oquI3iziqroKtysEFZ_-35" value="&lt;b&gt;&amp;nbsp; &amp;nbsp; &amp;nbsp; &amp;nbsp; &amp;nbsp;Diagnosis&lt;/b&gt;: &amp;nbsp; &amp;nbsp; &amp;nbsp; &amp;nbsp; &amp;nbsp;acute &amp;nbsp; viral rhinosinusitis" style="rounded=1;whiteSpace=wrap;html=1;" parent="1" vertex="1">
          <mxGeometry x="143.5" y="369" width="120" height="60" as="geometry" />
        </mxCell>
        <mxCell id="6oquI3iziqroKtysEFZ_-38" style="rounded=0;orthogonalLoop=1;jettySize=auto;html=1;exitX=0.5;exitY=1;exitDx=0;exitDy=0;" parent="1" source="6oquI3iziqroKtysEFZ_-37" edge="1">
          <mxGeometry relative="1" as="geometry">
            <mxPoint x="766" y="420" as="targetPoint" />
          </mxGeometry>
        </mxCell>
        <mxCell id="6oquI3iziqroKtysEFZ_-37" value="Manage as viral upper airway infection&lt;div&gt;(acute rhinopharingitis)&lt;/div&gt;" style="rounded=1;whiteSpace=wrap;html=1;" parent="1" vertex="1">
          <mxGeometry x="700" y="330" width="132" height="60" as="geometry" />
        </mxCell>
        <mxCell id="6oquI3iziqroKtysEFZ_-39" value="&lt;div style=&quot;&quot;&gt;Prescribe symptomatics&lt;/div&gt;&lt;div style=&quot;&quot;&gt;(analgesics, antipiretics) and nasal irrigation with 0.9% saline&lt;/div&gt;&lt;div style=&quot;&quot;&gt;&lt;br&gt;&lt;/div&gt;&lt;div style=&quot;&quot;&gt;Consider intranasal corticosteroids for symptomatic relief&lt;/div&gt;" style="whiteSpace=wrap;html=1;aspect=fixed;align=center;" parent="1" vertex="1">
          <mxGeometry x="690.5" y="429" width="151" height="151" as="geometry" />
        </mxCell>
        <mxCell id="6oquI3iziqroKtysEFZ_-43" value="&lt;div style=&quot;&quot;&gt;Prescribe symptomatics&lt;/div&gt;&lt;div style=&quot;&quot;&gt;(analgesics, antipiretics) and nasal irrigation with 0.9% saline&lt;/div&gt;&lt;div style=&quot;&quot;&gt;&lt;br&gt;&lt;/div&gt;&lt;div style=&quot;&quot;&gt;Consider intranasal corticosteroids for symptomatic relief&lt;/div&gt;" style="whiteSpace=wrap;html=1;aspect=fixed;align=center;" parent="1" vertex="1">
          <mxGeometry x="130" y="475" width="151" height="151" as="geometry" />
        </mxCell>
        <mxCell id="6oquI3iziqroKtysEFZ_-48" style="rounded=0;orthogonalLoop=1;jettySize=auto;html=1;exitX=1;exitY=0.5;exitDx=0;exitDy=0;" parent="1" source="6oquI3iziqroKtysEFZ_-47" edge="1">
          <mxGeometry relative="1" as="geometry">
            <mxPoint x="450" y="370" as="targetPoint" />
          </mxGeometry>
        </mxCell>
        <mxCell id="6oquI3iziqroKtysEFZ_-49" style="edgeStyle=orthogonalEdgeStyle;rounded=0;orthogonalLoop=1;jettySize=auto;html=1;exitX=0.5;exitY=1;exitDx=0;exitDy=0;" parent="1" source="6oquI3iziqroKtysEFZ_-47" edge="1">
          <mxGeometry relative="1" as="geometry">
            <mxPoint x="363" y="470" as="targetPoint" />
          </mxGeometry>
        </mxCell>
        <mxCell id="6oquI3iziqroKtysEFZ_-47" value="Duration&amp;nbsp;&lt;div&gt;&lt;span style=&quot;font-size: 16px; text-align: start; caret-color: rgb(71, 71, 71); color: rgb(71, 71, 71); font-family: &amp;quot;Google Sans&amp;quot;, Arial, sans-serif; background-color: rgb(255, 255, 255);&quot;&gt;≥&lt;/span&gt;&lt;span style=&quot;font-size: 16px; text-align: start; caret-color: rgb(71, 71, 71); color: rgb(71, 71, 71); font-family: &amp;quot;Google Sans&amp;quot;, Arial, sans-serif; background-color: rgb(255, 255, 255);&quot;&gt;&amp;nbsp;12&amp;nbsp;&lt;/span&gt;weeks&lt;/div&gt;" style="rhombus;whiteSpace=wrap;html=1;" parent="1" vertex="1">
          <mxGeometry x="302" y="250" width="122.5" height="120" as="geometry" />
        </mxCell>
        <mxCell id="6oquI3iziqroKtysEFZ_-80" style="edgeStyle=orthogonalEdgeStyle;rounded=0;orthogonalLoop=1;jettySize=auto;html=1;exitX=0.5;exitY=1;exitDx=0;exitDy=0;" parent="1" source="6oquI3iziqroKtysEFZ_-50" edge="1">
          <mxGeometry relative="1" as="geometry">
            <mxPoint x="363" y="550" as="targetPoint" />
          </mxGeometry>
        </mxCell>
        <mxCell id="6oquI3iziqroKtysEFZ_-50" value="yes" style="rounded=1;whiteSpace=wrap;html=1;" parent="1" vertex="1">
          <mxGeometry x="338.25" y="475" width="50" height="30" as="geometry" />
        </mxCell>
        <mxCell id="6oquI3iziqroKtysEFZ_-59" style="rounded=0;orthogonalLoop=1;jettySize=auto;html=1;exitX=1;exitY=0.5;exitDx=0;exitDy=0;" parent="1" source="6oquI3iziqroKtysEFZ_-51" edge="1">
          <mxGeometry relative="1" as="geometry">
            <mxPoint x="540" y="426" as="targetPoint" />
          </mxGeometry>
        </mxCell>
        <mxCell id="6oquI3iziqroKtysEFZ_-51" value="no" style="rounded=1;whiteSpace=wrap;html=1;" parent="1" vertex="1">
          <mxGeometry x="450" y="369" width="50" height="30" as="geometry" />
        </mxCell>
        <mxCell id="6oquI3iziqroKtysEFZ_-56" style="rounded=0;orthogonalLoop=1;jettySize=auto;html=1;exitX=0.5;exitY=1;exitDx=0;exitDy=0;" parent="1" source="6oquI3iziqroKtysEFZ_-55" edge="1">
          <mxGeometry relative="1" as="geometry">
            <mxPoint x="365" y="720" as="targetPoint" />
          </mxGeometry>
        </mxCell>
        <mxCell id="6oquI3iziqroKtysEFZ_-55" value="&lt;div style=&quot;&quot;&gt;Prescribe nasal irrigation with 0.9% saline&lt;/div&gt;&lt;div style=&quot;&quot;&gt;&lt;br&gt;&lt;/div&gt;&lt;div style=&quot;&quot;&gt;Consider intranasal corticosteroids for symptomatic relief&lt;/div&gt;" style="whiteSpace=wrap;html=1;aspect=fixed;align=center;" parent="1" vertex="1">
          <mxGeometry x="302" y="550" width="126" height="126" as="geometry" />
        </mxCell>
        <mxCell id="6oquI3iziqroKtysEFZ_-57" value="Refer to ENT&lt;div&gt;to assess for potential chronic rhinosinusitis&amp;nbsp;&lt;/div&gt;" style="whiteSpace=wrap;html=1;aspect=fixed;" parent="1" vertex="1">
          <mxGeometry x="315" y="730" width="100" height="100" as="geometry" />
        </mxCell>
        <mxCell id="6oquI3iziqroKtysEFZ_-61" style="rounded=0;orthogonalLoop=1;jettySize=auto;html=1;exitX=0.5;exitY=1;exitDx=0;exitDy=0;entryX=0.5;entryY=0;entryDx=0;entryDy=0;" parent="1" source="6oquI3iziqroKtysEFZ_-60" target="6oquI3iziqroKtysEFZ_-62" edge="1">
          <mxGeometry relative="1" as="geometry">
            <mxPoint x="609.666666666667" y="476" as="targetPoint" />
          </mxGeometry>
        </mxCell>
        <mxCell id="6oquI3iziqroKtysEFZ_-60" value="&lt;div&gt;&lt;b&gt;&amp;nbsp; &amp;nbsp; Diagnosis&lt;/b&gt;: &amp;nbsp; &amp;nbsp;&amp;nbsp;&lt;br&gt;&lt;/div&gt;Subacute rhinosinusitis" style="rounded=1;whiteSpace=wrap;html=1;" parent="1" vertex="1">
          <mxGeometry x="540" y="429" width="120" height="60" as="geometry" />
        </mxCell>
        <mxCell id="6oquI3iziqroKtysEFZ_-71" style="rounded=0;orthogonalLoop=1;jettySize=auto;html=1;exitX=0;exitY=1;exitDx=0;exitDy=0;" parent="1" source="6oquI3iziqroKtysEFZ_-62" edge="1">
          <mxGeometry relative="1" as="geometry">
            <mxPoint x="520" y="660" as="targetPoint" />
          </mxGeometry>
        </mxCell>
        <mxCell id="6oquI3iziqroKtysEFZ_-72" style="rounded=0;orthogonalLoop=1;jettySize=auto;html=1;exitX=0;exitY=0;exitDx=0;exitDy=0;entryX=1;entryY=1;entryDx=0;entryDy=0;" parent="1" source="6oquI3iziqroKtysEFZ_-62" target="6oquI3iziqroKtysEFZ_-63" edge="1">
          <mxGeometry relative="1" as="geometry">
            <mxPoint x="520" y="516" as="targetPoint" />
          </mxGeometry>
        </mxCell>
        <mxCell id="6oquI3iziqroKtysEFZ_-62" value="&lt;div&gt;&lt;br&gt;&lt;/div&gt;Based on clinical judgement,&lt;div&gt;does the case need acute management?&lt;/div&gt;" style="rhombus;whiteSpace=wrap;html=1;align=center;" parent="1" vertex="1">
          <mxGeometry x="473" y="520" width="217.5" height="140" as="geometry" />
        </mxCell>
        <mxCell id="6oquI3iziqroKtysEFZ_-81" style="rounded=0;orthogonalLoop=1;jettySize=auto;html=1;exitX=0;exitY=0;exitDx=0;exitDy=0;entryX=0.855;entryY=0.692;entryDx=0;entryDy=0;entryPerimeter=0;" parent="1" source="6oquI3iziqroKtysEFZ_-63" target="6oquI3iziqroKtysEFZ_-22" edge="1">
          <mxGeometry relative="1" as="geometry">
            <mxPoint x="180" y="230" as="targetPoint" />
          </mxGeometry>
        </mxCell>
        <mxCell id="6oquI3iziqroKtysEFZ_-63" value="yes" style="rounded=1;whiteSpace=wrap;html=1;" parent="1" vertex="1">
          <mxGeometry x="410" y="440" width="50" height="30" as="geometry" />
        </mxCell>
        <mxCell id="6oquI3iziqroKtysEFZ_-70" style="rounded=0;orthogonalLoop=1;jettySize=auto;html=1;exitX=0;exitY=0.5;exitDx=0;exitDy=0;" parent="1" source="6oquI3iziqroKtysEFZ_-64" edge="1">
          <mxGeometry relative="1" as="geometry">
            <mxPoint x="430" y="620" as="targetPoint" />
          </mxGeometry>
        </mxCell>
        <mxCell id="6oquI3iziqroKtysEFZ_-64" value="no" style="rounded=1;whiteSpace=wrap;html=1;" parent="1" vertex="1">
          <mxGeometry x="490" y="670" width="50" height="30" as="geometry" />
        </mxCell>
        <mxCell id="6oquI3iziqroKtysEFZ_-89" style="edgeStyle=orthogonalEdgeStyle;rounded=0;orthogonalLoop=1;jettySize=auto;html=1;exitX=0;exitY=1;exitDx=0;exitDy=0;" parent="1" source="6oquI3iziqroKtysEFZ_-83" edge="1">
          <mxGeometry relative="1" as="geometry">
            <mxPoint x="46" y="760" as="targetPoint" />
          </mxGeometry>
        </mxCell>
        <mxCell id="6oquI3iziqroKtysEFZ_-90" style="edgeStyle=orthogonalEdgeStyle;rounded=0;orthogonalLoop=1;jettySize=auto;html=1;exitX=1;exitY=1;exitDx=0;exitDy=0;" parent="1" source="6oquI3iziqroKtysEFZ_-83" edge="1">
          <mxGeometry relative="1" as="geometry">
            <mxPoint x="118" y="760" as="targetPoint" />
          </mxGeometry>
        </mxCell>
        <mxCell id="6oquI3iziqroKtysEFZ_-83" value="Is there suspicion for complications?" style="rhombus;whiteSpace=wrap;html=1;" parent="1" vertex="1">
          <mxGeometry x="10" y="626" width="145" height="134" as="geometry" />
        </mxCell>
        <mxCell id="6oquI3iziqroKtysEFZ_-92" style="edgeStyle=orthogonalEdgeStyle;rounded=0;orthogonalLoop=1;jettySize=auto;html=1;exitX=0.5;exitY=1;exitDx=0;exitDy=0;" parent="1" source="6oquI3iziqroKtysEFZ_-84" edge="1">
          <mxGeometry relative="1" as="geometry">
            <mxPoint x="34.66666666666674" y="830" as="targetPoint" />
          </mxGeometry>
        </mxCell>
        <mxCell id="6oquI3iziqroKtysEFZ_-84" value="yes" style="rounded=1;whiteSpace=wrap;html=1;" parent="1" vertex="1">
          <mxGeometry x="10" y="765" width="50" height="30" as="geometry" />
        </mxCell>
        <mxCell id="6oquI3iziqroKtysEFZ_-93" style="rounded=0;orthogonalLoop=1;jettySize=auto;html=1;exitX=0.5;exitY=1;exitDx=0;exitDy=0;" parent="1" source="6oquI3iziqroKtysEFZ_-85" target="6oquI3iziqroKtysEFZ_-94" edge="1">
          <mxGeometry relative="1" as="geometry">
            <mxPoint x="140.00000000000023" y="840" as="targetPoint" />
          </mxGeometry>
        </mxCell>
        <mxCell id="6oquI3iziqroKtysEFZ_-85" value="no" style="rounded=1;whiteSpace=wrap;html=1;" parent="1" vertex="1">
          <mxGeometry x="105" y="765" width="50" height="30" as="geometry" />
        </mxCell>
        <mxCell id="6oquI3iziqroKtysEFZ_-91" value="Order imaging exam and manage accordingly" style="whiteSpace=wrap;html=1;aspect=fixed;" parent="1" vertex="1">
          <mxGeometry x="10" y="830" width="90" height="90" as="geometry" />
        </mxCell>
        <mxCell id="6oquI3iziqroKtysEFZ_-100" style="rounded=0;orthogonalLoop=1;jettySize=auto;html=1;exitX=1;exitY=0;exitDx=0;exitDy=0;" parent="1" source="6oquI3iziqroKtysEFZ_-94" edge="1">
          <mxGeometry relative="1" as="geometry">
            <mxPoint x="330.0000000000002" y="860" as="targetPoint" />
          </mxGeometry>
        </mxCell>
        <mxCell id="6oquI3iziqroKtysEFZ_-102" style="rounded=0;orthogonalLoop=1;jettySize=auto;html=1;exitX=1;exitY=1;exitDx=0;exitDy=0;" parent="1" source="6oquI3iziqroKtysEFZ_-94" edge="1">
          <mxGeometry relative="1" as="geometry">
            <mxPoint x="330" y="930" as="targetPoint" />
          </mxGeometry>
        </mxCell>
        <mxCell id="6oquI3iziqroKtysEFZ_-94" value="Is the patient eligible&lt;div&gt;&amp;nbsp;for watchful waiting?&lt;/div&gt;" style="rhombus;whiteSpace=wrap;html=1;" parent="1" vertex="1">
          <mxGeometry x="130" y="810" width="170" height="140" as="geometry" />
        </mxCell>
        <mxCell id="6oquI3iziqroKtysEFZ_-103" style="rounded=0;orthogonalLoop=1;jettySize=auto;html=1;exitX=1;exitY=0.5;exitDx=0;exitDy=0;edgeStyle=orthogonalEdgeStyle;" parent="1" edge="1">
          <mxGeometry relative="1" as="geometry">
            <mxPoint x="671" y="680" as="targetPoint" />
            <mxPoint x="391" y="865.5" as="sourcePoint" />
            <Array as="points">
              <mxPoint x="601" y="866" />
            </Array>
          </mxGeometry>
        </mxCell>
        <mxCell id="6oquI3iziqroKtysEFZ_-95" value="yes" style="rounded=1;whiteSpace=wrap;html=1;" parent="1" vertex="1">
          <mxGeometry x="340" y="850.5" width="50" height="30" as="geometry" />
        </mxCell>
        <mxCell id="6oquI3iziqroKtysEFZ_-104" style="rounded=0;orthogonalLoop=1;jettySize=auto;html=1;exitX=1;exitY=0.5;exitDx=0;exitDy=0;edgeStyle=orthogonalEdgeStyle;curved=0;" parent="1" source="6oquI3iziqroKtysEFZ_-96" edge="1">
          <mxGeometry relative="1" as="geometry">
            <mxPoint x="620" y="1020" as="targetPoint" />
            <Array as="points">
              <mxPoint x="531" y="935" />
              <mxPoint x="531" y="1020" />
            </Array>
          </mxGeometry>
        </mxCell>
        <mxCell id="6oquI3iziqroKtysEFZ_-96" value="no" style="rounded=1;whiteSpace=wrap;html=1;" parent="1" vertex="1">
          <mxGeometry x="338.25" y="920" width="50" height="30" as="geometry" />
        </mxCell>
        <mxCell id="6oquI3iziqroKtysEFZ_-99" value="&lt;div style=&quot;&quot;&gt;Prescribe symptomatics&lt;/div&gt;&lt;div style=&quot;&quot;&gt;(analgesics, antipiretics) and nasal irrigation with 0.9% saline&lt;/div&gt;&lt;div style=&quot;&quot;&gt;&lt;br&gt;&lt;/div&gt;&lt;div style=&quot;&quot;&gt;Consider intranasal corticosteroids for symptomatic relief&lt;/div&gt;" style="whiteSpace=wrap;html=1;aspect=fixed;align=center;" parent="1" vertex="1">
          <mxGeometry x="450" y="830" width="151" height="151" as="geometry" />
        </mxCell>
        <mxCell id="l2N7j59_v2V8E63CawsU-4" style="rounded=0;orthogonalLoop=1;jettySize=auto;html=1;exitX=1;exitY=1;exitDx=0;exitDy=0;entryX=0.5;entryY=0;entryDx=0;entryDy=0;" parent="1" source="l2N7j59_v2V8E63CawsU-1" target="l2N7j59_v2V8E63CawsU-3" edge="1">
          <mxGeometry relative="1" as="geometry" />
        </mxCell>
        <mxCell id="l2N7j59_v2V8E63CawsU-11" style="rounded=0;orthogonalLoop=1;jettySize=auto;html=1;exitX=0;exitY=1;exitDx=0;exitDy=0;entryX=1;entryY=0;entryDx=0;entryDy=0;" parent="1" source="l2N7j59_v2V8E63CawsU-1" target="l2N7j59_v2V8E63CawsU-2" edge="1">
          <mxGeometry relative="1" as="geometry">
            <mxPoint x="700" y="770" as="targetPoint" />
          </mxGeometry>
        </mxCell>
        <mxCell id="l2N7j59_v2V8E63CawsU-1" value="Getting worse&lt;div&gt;or not improving in 7 days&lt;/div&gt;" style="rhombus;whiteSpace=wrap;html=1;" parent="1" vertex="1">
          <mxGeometry x="672" y="595" width="169.5" height="170" as="geometry" />
        </mxCell>
        <mxCell id="l2N7j59_v2V8E63CawsU-14" style="edgeStyle=orthogonalEdgeStyle;rounded=0;orthogonalLoop=1;jettySize=auto;html=1;" parent="1" edge="1">
          <mxGeometry relative="1" as="geometry">
            <mxPoint x="686" y="910" as="targetPoint" />
            <mxPoint x="686" y="810" as="sourcePoint" />
          </mxGeometry>
        </mxCell>
        <mxCell id="l2N7j59_v2V8E63CawsU-2" value="yes" style="rounded=1;whiteSpace=wrap;html=1;" parent="1" vertex="1">
          <mxGeometry x="649.75" y="780" width="50" height="30" as="geometry" />
        </mxCell>
        <mxCell id="l2N7j59_v2V8E63CawsU-5" style="edgeStyle=orthogonalEdgeStyle;rounded=0;orthogonalLoop=1;jettySize=auto;html=1;exitX=0.5;exitY=1;exitDx=0;exitDy=0;" parent="1" source="l2N7j59_v2V8E63CawsU-3" edge="1">
          <mxGeometry relative="1" as="geometry">
            <mxPoint x="817" y="840" as="targetPoint" />
          </mxGeometry>
        </mxCell>
        <mxCell id="l2N7j59_v2V8E63CawsU-3" value="no" style="rounded=1;whiteSpace=wrap;html=1;" parent="1" vertex="1">
          <mxGeometry x="791.5" y="780" width="50" height="30" as="geometry" />
        </mxCell>
        <mxCell id="l2N7j59_v2V8E63CawsU-6" value="Keep current management until resolution" style="rounded=0;whiteSpace=wrap;html=1;" parent="1" vertex="1">
          <mxGeometry x="730" y="845" width="120" height="60" as="geometry" />
        </mxCell>
        <mxCell id="l2N7j59_v2V8E63CawsU-20" style="rounded=0;orthogonalLoop=1;jettySize=auto;html=1;exitX=0;exitY=1;exitDx=0;exitDy=0;entryX=0.5;entryY=0;entryDx=0;entryDy=0;" parent="1" source="l2N7j59_v2V8E63CawsU-12" target="l2N7j59_v2V8E63CawsU-15" edge="1">
          <mxGeometry relative="1" as="geometry" />
        </mxCell>
        <mxCell id="l2N7j59_v2V8E63CawsU-21" style="rounded=0;orthogonalLoop=1;jettySize=auto;html=1;exitX=1;exitY=1;exitDx=0;exitDy=0;entryX=0.5;entryY=0;entryDx=0;entryDy=0;" parent="1" source="l2N7j59_v2V8E63CawsU-12" target="l2N7j59_v2V8E63CawsU-16" edge="1">
          <mxGeometry relative="1" as="geometry" />
        </mxCell>
        <mxCell id="l2N7j59_v2V8E63CawsU-12" value="Is there severe infection in&lt;div&gt;need of hospitalization?&lt;/div&gt;" style="rhombus;whiteSpace=wrap;html=1;" parent="1" vertex="1">
          <mxGeometry x="601" y="910" width="169.5" height="170" as="geometry" />
        </mxCell>
        <mxCell id="l2N7j59_v2V8E63CawsU-24" style="rounded=0;orthogonalLoop=1;jettySize=auto;html=1;exitX=1;exitY=1;exitDx=0;exitDy=0;" parent="1" source="l2N7j59_v2V8E63CawsU-15" target="l2N7j59_v2V8E63CawsU-17" edge="1">
          <mxGeometry relative="1" as="geometry" />
        </mxCell>
        <mxCell id="l2N7j59_v2V8E63CawsU-15" value="yes" style="rounded=1;whiteSpace=wrap;html=1;" parent="1" vertex="1">
          <mxGeometry x="342" y="1150" width="50" height="30" as="geometry" />
        </mxCell>
        <mxCell id="l2N7j59_v2V8E63CawsU-25" style="rounded=0;orthogonalLoop=1;jettySize=auto;html=1;exitX=0;exitY=1;exitDx=0;exitDy=0;" parent="1" source="l2N7j59_v2V8E63CawsU-16" target="l2N7j59_v2V8E63CawsU-17" edge="1">
          <mxGeometry relative="1" as="geometry" />
        </mxCell>
        <mxCell id="l2N7j59_v2V8E63CawsU-16" value="no" style="rounded=1;whiteSpace=wrap;html=1;" parent="1" vertex="1">
          <mxGeometry x="482.75" y="1150" width="50" height="30" as="geometry" />
        </mxCell>
        <mxCell id="l2N7j59_v2V8E63CawsU-30" style="rounded=0;orthogonalLoop=1;jettySize=auto;html=1;exitX=0;exitY=1;exitDx=0;exitDy=0;entryX=0.5;entryY=0;entryDx=0;entryDy=0;" parent="1" source="l2N7j59_v2V8E63CawsU-17" target="l2N7j59_v2V8E63CawsU-29" edge="1">
          <mxGeometry relative="1" as="geometry" />
        </mxCell>
        <mxCell id="l2N7j59_v2V8E63CawsU-31" style="rounded=0;orthogonalLoop=1;jettySize=auto;html=1;exitX=0;exitY=1;exitDx=0;exitDy=0;" parent="1" source="l2N7j59_v2V8E63CawsU-17" edge="1">
          <mxGeometry relative="1" as="geometry">
            <mxPoint x="321" y="1340" as="targetPoint" />
          </mxGeometry>
        </mxCell>
        <mxCell id="l2N7j59_v2V8E63CawsU-32" style="rounded=0;orthogonalLoop=1;jettySize=auto;html=1;exitX=1;exitY=1;exitDx=0;exitDy=0;" parent="1" source="l2N7j59_v2V8E63CawsU-17" edge="1">
          <mxGeometry relative="1" as="geometry">
            <mxPoint x="481" y="1340" as="targetPoint" />
          </mxGeometry>
        </mxCell>
        <mxCell id="l2N7j59_v2V8E63CawsU-33" style="rounded=0;orthogonalLoop=1;jettySize=auto;html=1;exitX=1;exitY=1;exitDx=0;exitDy=0;entryX=0.5;entryY=0;entryDx=0;entryDy=0;" parent="1" source="l2N7j59_v2V8E63CawsU-17" target="l2N7j59_v2V8E63CawsU-27" edge="1">
          <mxGeometry relative="1" as="geometry" />
        </mxCell>
        <mxCell id="l2N7j59_v2V8E63CawsU-17" value="beta-lactam allergy?" style="rhombus;whiteSpace=wrap;html=1;" parent="1" vertex="1">
          <mxGeometry x="373.25" y="1190" width="127" height="110" as="geometry" />
        </mxCell>
        <mxCell id="l2N7j59_v2V8E63CawsU-35" style="rounded=0;orthogonalLoop=1;jettySize=auto;html=1;exitX=0.5;exitY=1;exitDx=0;exitDy=0;entryX=0.645;entryY=-0.015;entryDx=0;entryDy=0;entryPerimeter=0;" parent="1" source="l2N7j59_v2V8E63CawsU-26" target="l2N7j59_v2V8E63CawsU-40" edge="1">
          <mxGeometry relative="1" as="geometry">
            <mxPoint x="485.7777777777778" y="1490" as="targetPoint" />
          </mxGeometry>
        </mxCell>
        <mxCell id="l2N7j59_v2V8E63CawsU-26" value="yes" style="rounded=1;whiteSpace=wrap;html=1;" parent="1" vertex="1">
          <mxGeometry x="461" y="1340" width="50" height="30" as="geometry" />
        </mxCell>
        <mxCell id="l2N7j59_v2V8E63CawsU-34" style="rounded=0;orthogonalLoop=1;jettySize=auto;html=1;exitX=0.5;exitY=1;exitDx=0;exitDy=0;entryX=0.625;entryY=-0.041;entryDx=0;entryDy=0;entryPerimeter=0;" parent="1" source="l2N7j59_v2V8E63CawsU-27" target="l2N7j59_v2V8E63CawsU-41" edge="1">
          <mxGeometry relative="1" as="geometry">
            <mxPoint x="568" y="1490" as="targetPoint" />
          </mxGeometry>
        </mxCell>
        <mxCell id="l2N7j59_v2V8E63CawsU-27" value="no" style="rounded=1;whiteSpace=wrap;html=1;" parent="1" vertex="1">
          <mxGeometry x="542.5" y="1340" width="50" height="30" as="geometry" />
        </mxCell>
        <mxCell id="l2N7j59_v2V8E63CawsU-37" style="rounded=0;orthogonalLoop=1;jettySize=auto;html=1;exitX=0.5;exitY=1;exitDx=0;exitDy=0;entryX=0.5;entryY=0;entryDx=0;entryDy=0;" parent="1" source="l2N7j59_v2V8E63CawsU-28" target="l2N7j59_v2V8E63CawsU-38" edge="1">
          <mxGeometry relative="1" as="geometry">
            <mxPoint x="308" y="1490" as="targetPoint" />
          </mxGeometry>
        </mxCell>
        <mxCell id="l2N7j59_v2V8E63CawsU-28" value="yes" style="rounded=1;whiteSpace=wrap;html=1;" parent="1" vertex="1">
          <mxGeometry x="283.5" y="1340" width="50" height="30" as="geometry" />
        </mxCell>
        <mxCell id="l2N7j59_v2V8E63CawsU-36" style="rounded=0;orthogonalLoop=1;jettySize=auto;html=1;exitX=0.5;exitY=1;exitDx=0;exitDy=0;entryX=0.5;entryY=0;entryDx=0;entryDy=0;" parent="1" source="l2N7j59_v2V8E63CawsU-29" target="l2N7j59_v2V8E63CawsU-39" edge="1">
          <mxGeometry relative="1" as="geometry">
            <mxPoint x="390.2222222222222" y="1490" as="targetPoint" />
          </mxGeometry>
        </mxCell>
        <mxCell id="l2N7j59_v2V8E63CawsU-29" value="no" style="rounded=1;whiteSpace=wrap;html=1;" parent="1" vertex="1">
          <mxGeometry x="365" y="1340" width="50" height="30" as="geometry" />
        </mxCell>
        <mxCell id="l2N7j59_v2V8E63CawsU-43" style="rounded=0;orthogonalLoop=1;jettySize=auto;html=1;exitX=0.5;exitY=1;exitDx=0;exitDy=0;entryX=0;entryY=0.5;entryDx=0;entryDy=0;" parent="1" source="l2N7j59_v2V8E63CawsU-38" target="l2N7j59_v2V8E63CawsU-42" edge="1">
          <mxGeometry relative="1" as="geometry" />
        </mxCell>
        <mxCell id="l2N7j59_v2V8E63CawsU-38" value="Levofloxacin 750mg IV 24/24h 5-7days" style="rounded=0;whiteSpace=wrap;html=1;" parent="1" vertex="1">
          <mxGeometry x="130" y="1500" width="100" height="60" as="geometry" />
        </mxCell>
        <mxCell id="l2N7j59_v2V8E63CawsU-39" value="Beta-lactam" style="rounded=0;whiteSpace=wrap;html=1;" parent="1" vertex="1">
          <mxGeometry x="281" y="1500" width="90" height="60" as="geometry" />
        </mxCell>
        <mxCell id="l2N7j59_v2V8E63CawsU-46" style="rounded=0;orthogonalLoop=1;jettySize=auto;html=1;exitX=0.5;exitY=1;exitDx=0;exitDy=0;entryX=1;entryY=0;entryDx=0;entryDy=0;" parent="1" source="l2N7j59_v2V8E63CawsU-40" target="l2N7j59_v2V8E63CawsU-42" edge="1">
          <mxGeometry relative="1" as="geometry" />
        </mxCell>
        <mxCell id="l2N7j59_v2V8E63CawsU-40" value="Respiratory quinolone or doxicycline" style="rounded=0;whiteSpace=wrap;html=1;" parent="1" vertex="1">
          <mxGeometry x="460" y="1500" width="90" height="60" as="geometry" />
        </mxCell>
        <mxCell id="l2N7j59_v2V8E63CawsU-47" style="rounded=0;orthogonalLoop=1;jettySize=auto;html=1;exitX=0.5;exitY=1;exitDx=0;exitDy=0;" parent="1" source="l2N7j59_v2V8E63CawsU-41" edge="1">
          <mxGeometry relative="1" as="geometry">
            <mxPoint x="481" y="1670" as="targetPoint" />
          </mxGeometry>
        </mxCell>
        <mxCell id="l2N7j59_v2V8E63CawsU-41" value="Amoxacilin+&lt;div&gt;clavulanate&lt;/div&gt;&lt;div&gt;875mg+125mg oral&lt;/div&gt;&lt;div&gt;12/12h 5-7 days&lt;/div&gt;" style="rounded=0;whiteSpace=wrap;html=1;" parent="1" vertex="1">
          <mxGeometry x="610" y="1500" width="109" height="60" as="geometry" />
        </mxCell>
        <mxCell id="l2N7j59_v2V8E63CawsU-50" style="rounded=0;orthogonalLoop=1;jettySize=auto;html=1;exitX=0;exitY=1;exitDx=0;exitDy=0;entryX=0.75;entryY=0;entryDx=0;entryDy=0;" parent="1" source="l2N7j59_v2V8E63CawsU-42" target="l2N7j59_v2V8E63CawsU-48" edge="1">
          <mxGeometry relative="1" as="geometry">
            <mxPoint x="361" y="1720" as="targetPoint" />
          </mxGeometry>
        </mxCell>
        <mxCell id="l2N7j59_v2V8E63CawsU-51" style="rounded=0;orthogonalLoop=1;jettySize=auto;html=1;exitX=1;exitY=1;exitDx=0;exitDy=0;entryX=0.25;entryY=0;entryDx=0;entryDy=0;" parent="1" source="l2N7j59_v2V8E63CawsU-42" target="l2N7j59_v2V8E63CawsU-49" edge="1">
          <mxGeometry relative="1" as="geometry">
            <mxPoint x="481" y="1720" as="targetPoint" />
          </mxGeometry>
        </mxCell>
        <mxCell id="l2N7j59_v2V8E63CawsU-42" value="Is patient clinically better?" style="rhombus;whiteSpace=wrap;html=1;" parent="1" vertex="1">
          <mxGeometry x="343.25" y="1600" width="137.75" height="130" as="geometry" />
        </mxCell>
        <mxCell id="l2N7j59_v2V8E63CawsU-44" style="rounded=0;orthogonalLoop=1;jettySize=auto;html=1;exitX=0.5;exitY=1;exitDx=0;exitDy=0;entryX=0;entryY=0;entryDx=0;entryDy=0;" parent="1" source="l2N7j59_v2V8E63CawsU-39" target="l2N7j59_v2V8E63CawsU-42" edge="1">
          <mxGeometry relative="1" as="geometry" />
        </mxCell>
        <mxCell id="l2N7j59_v2V8E63CawsU-52" style="edgeStyle=orthogonalEdgeStyle;rounded=0;orthogonalLoop=1;jettySize=auto;html=1;exitX=0.5;exitY=1;exitDx=0;exitDy=0;" parent="1" source="l2N7j59_v2V8E63CawsU-48" edge="1">
          <mxGeometry relative="1" as="geometry">
            <mxPoint x="341.61538461538476" y="1790" as="targetPoint" />
          </mxGeometry>
        </mxCell>
        <mxCell id="l2N7j59_v2V8E63CawsU-48" value="yes" style="rounded=1;whiteSpace=wrap;html=1;" parent="1" vertex="1">
          <mxGeometry x="316.75" y="1730" width="50" height="30" as="geometry" />
        </mxCell>
        <mxCell id="l2N7j59_v2V8E63CawsU-55" style="edgeStyle=orthogonalEdgeStyle;rounded=0;orthogonalLoop=1;jettySize=auto;html=1;exitX=0.5;exitY=1;exitDx=0;exitDy=0;" parent="1" source="l2N7j59_v2V8E63CawsU-49" edge="1">
          <mxGeometry relative="1" as="geometry">
            <mxPoint x="483.1538461538462" y="1790" as="targetPoint" />
          </mxGeometry>
        </mxCell>
        <mxCell id="l2N7j59_v2V8E63CawsU-49" value="no" style="rounded=1;whiteSpace=wrap;html=1;" parent="1" vertex="1">
          <mxGeometry x="457.5" y="1730" width="50" height="30" as="geometry" />
        </mxCell>
        <mxCell id="l2N7j59_v2V8E63CawsU-53" value="&lt;div&gt;Keep symptomatics&lt;/div&gt;&lt;div&gt;(analgesics, antipiretics) and nasal irrigation with 0.9% saline until&amp;nbsp;&lt;/div&gt;&lt;div&gt;symptom resolution&lt;/div&gt;" style="rounded=0;whiteSpace=wrap;html=1;" parent="1" vertex="1">
          <mxGeometry x="250.75" y="1800" width="150" height="130" as="geometry" />
        </mxCell>
        <mxCell id="l2N7j59_v2V8E63CawsU-54" value="&lt;div&gt;Order imaging exam to assess for complications;&lt;/div&gt;&lt;div&gt;Consider changing antibiotic therapy, among options, if possible, based on resistance profile;&lt;/div&gt;&lt;div&gt;Refer for ENT evaluation&lt;/div&gt;" style="rounded=0;whiteSpace=wrap;html=1;" parent="1" vertex="1">
          <mxGeometry x="423" y="1800" width="150" height="130" as="geometry" />
        </mxCell>
        <mxCell id="gi0CET8if4S4NuyeQcct-1" value="" style="shape=table;startSize=0;container=1;collapsible=0;childLayout=tableLayout;" vertex="1" parent="1">
          <mxGeometry x="581.5" y="1963" width="260" height="172" as="geometry" />
        </mxCell>
        <mxCell id="gi0CET8if4S4NuyeQcct-2" value="" style="shape=tableRow;horizontal=0;startSize=0;swimlaneHead=0;swimlaneBody=0;strokeColor=inherit;top=0;left=0;bottom=0;right=0;collapsible=0;dropTarget=0;fillColor=none;points=[[0,0.5],[1,0.5]];portConstraint=eastwest;" vertex="1" parent="gi0CET8if4S4NuyeQcct-1">
          <mxGeometry width="260" height="32" as="geometry" />
        </mxCell>
        <mxCell id="gi0CET8if4S4NuyeQcct-3" value="&lt;b&gt;Major symptoms&lt;/b&gt;" style="shape=partialRectangle;html=1;whiteSpace=wrap;connectable=0;strokeColor=inherit;overflow=hidden;fillColor=none;top=0;left=0;bottom=0;right=0;pointerEvents=1;" vertex="1" parent="gi0CET8if4S4NuyeQcct-2">
          <mxGeometry width="130" height="32" as="geometry">
            <mxRectangle width="130" height="32" as="alternateBounds" />
          </mxGeometry>
        </mxCell>
        <mxCell id="gi0CET8if4S4NuyeQcct-4" value="&lt;b&gt;Minor symptoms&lt;/b&gt;" style="shape=partialRectangle;html=1;whiteSpace=wrap;connectable=0;strokeColor=inherit;overflow=hidden;fillColor=none;top=0;left=0;bottom=0;right=0;pointerEvents=1;" vertex="1" parent="gi0CET8if4S4NuyeQcct-2">
          <mxGeometry x="130" width="130" height="32" as="geometry">
            <mxRectangle width="130" height="32" as="alternateBounds" />
          </mxGeometry>
        </mxCell>
        <mxCell id="gi0CET8if4S4NuyeQcct-5" value="" style="shape=tableRow;horizontal=0;startSize=0;swimlaneHead=0;swimlaneBody=0;strokeColor=inherit;top=0;left=0;bottom=0;right=0;collapsible=0;dropTarget=0;fillColor=none;points=[[0,0.5],[1,0.5]];portConstraint=eastwest;" vertex="1" parent="gi0CET8if4S4NuyeQcct-1">
          <mxGeometry y="32" width="260" height="20" as="geometry" />
        </mxCell>
        <mxCell id="gi0CET8if4S4NuyeQcct-6" value="&lt;font style=&quot;font-size: 8px;&quot;&gt;purulent anterior nasal discharge&lt;/font&gt;" style="shape=partialRectangle;html=1;whiteSpace=wrap;connectable=0;strokeColor=inherit;overflow=hidden;fillColor=none;top=0;left=0;bottom=0;right=0;pointerEvents=1;align=left;" vertex="1" parent="gi0CET8if4S4NuyeQcct-5">
          <mxGeometry width="130" height="20" as="geometry">
            <mxRectangle width="130" height="20" as="alternateBounds" />
          </mxGeometry>
        </mxCell>
        <mxCell id="gi0CET8if4S4NuyeQcct-7" value="&lt;font style=&quot;font-size: 9px;&quot;&gt;headache&lt;/font&gt;" style="shape=partialRectangle;html=1;whiteSpace=wrap;connectable=0;strokeColor=inherit;overflow=hidden;fillColor=none;top=0;left=0;bottom=0;right=0;pointerEvents=1;" vertex="1" parent="gi0CET8if4S4NuyeQcct-5">
          <mxGeometry x="130" width="130" height="20" as="geometry">
            <mxRectangle width="130" height="20" as="alternateBounds" />
          </mxGeometry>
        </mxCell>
        <mxCell id="gi0CET8if4S4NuyeQcct-8" value="" style="shape=tableRow;horizontal=0;startSize=0;swimlaneHead=0;swimlaneBody=0;strokeColor=inherit;top=0;left=0;bottom=0;right=0;collapsible=0;dropTarget=0;fillColor=none;points=[[0,0.5],[1,0.5]];portConstraint=eastwest;" vertex="1" parent="gi0CET8if4S4NuyeQcct-1">
          <mxGeometry y="52" width="260" height="20" as="geometry" />
        </mxCell>
        <mxCell id="gi0CET8if4S4NuyeQcct-9" value="&lt;font style=&quot;font-size: 7px;&quot;&gt;purulent/clear posterior nasal discharge&lt;/font&gt;" style="shape=partialRectangle;html=1;whiteSpace=wrap;connectable=0;strokeColor=inherit;overflow=hidden;fillColor=none;top=0;left=0;bottom=0;right=0;pointerEvents=1;" vertex="1" parent="gi0CET8if4S4NuyeQcct-8">
          <mxGeometry width="130" height="20" as="geometry">
            <mxRectangle width="130" height="20" as="alternateBounds" />
          </mxGeometry>
        </mxCell>
        <mxCell id="gi0CET8if4S4NuyeQcct-10" value="&lt;font style=&quot;font-size: 9px;&quot;&gt;ear pain, pressure or fullness&lt;/font&gt;" style="shape=partialRectangle;html=1;whiteSpace=wrap;connectable=0;strokeColor=inherit;overflow=hidden;fillColor=none;top=0;left=0;bottom=0;right=0;pointerEvents=1;" vertex="1" parent="gi0CET8if4S4NuyeQcct-8">
          <mxGeometry x="130" width="130" height="20" as="geometry">
            <mxRectangle width="130" height="20" as="alternateBounds" />
          </mxGeometry>
        </mxCell>
        <mxCell id="gi0CET8if4S4NuyeQcct-11" value="" style="shape=tableRow;horizontal=0;startSize=0;swimlaneHead=0;swimlaneBody=0;strokeColor=inherit;top=0;left=0;bottom=0;right=0;collapsible=0;dropTarget=0;fillColor=none;points=[[0,0.5],[1,0.5]];portConstraint=eastwest;" vertex="1" parent="gi0CET8if4S4NuyeQcct-1">
          <mxGeometry y="72" width="260" height="20" as="geometry" />
        </mxCell>
        <mxCell id="gi0CET8if4S4NuyeQcct-12" value="&lt;font style=&quot;font-size: 9px;&quot;&gt;nasal congestion or obstruction&lt;/font&gt;" style="shape=partialRectangle;html=1;whiteSpace=wrap;connectable=0;strokeColor=inherit;overflow=hidden;fillColor=none;top=0;left=0;bottom=0;right=0;pointerEvents=1;" vertex="1" parent="gi0CET8if4S4NuyeQcct-11">
          <mxGeometry width="130" height="20" as="geometry">
            <mxRectangle width="130" height="20" as="alternateBounds" />
          </mxGeometry>
        </mxCell>
        <mxCell id="gi0CET8if4S4NuyeQcct-13" value="&lt;font style=&quot;font-size: 9px;&quot;&gt;halitosis&lt;/font&gt;" style="shape=partialRectangle;html=1;whiteSpace=wrap;connectable=0;strokeColor=inherit;overflow=hidden;fillColor=none;top=0;left=0;bottom=0;right=0;pointerEvents=1;" vertex="1" parent="gi0CET8if4S4NuyeQcct-11">
          <mxGeometry x="130" width="130" height="20" as="geometry">
            <mxRectangle width="130" height="20" as="alternateBounds" />
          </mxGeometry>
        </mxCell>
        <mxCell id="gi0CET8if4S4NuyeQcct-14" value="" style="shape=tableRow;horizontal=0;startSize=0;swimlaneHead=0;swimlaneBody=0;strokeColor=inherit;top=0;left=0;bottom=0;right=0;collapsible=0;dropTarget=0;fillColor=none;points=[[0,0.5],[1,0.5]];portConstraint=eastwest;" vertex="1" parent="gi0CET8if4S4NuyeQcct-1">
          <mxGeometry y="92" width="260" height="20" as="geometry" />
        </mxCell>
        <mxCell id="gi0CET8if4S4NuyeQcct-15" value="&lt;font style=&quot;font-size: 9px;&quot;&gt;facial congestion or fullness&lt;/font&gt;" style="shape=partialRectangle;html=1;whiteSpace=wrap;connectable=0;strokeColor=inherit;overflow=hidden;fillColor=none;top=0;left=0;bottom=0;right=0;pointerEvents=1;" vertex="1" parent="gi0CET8if4S4NuyeQcct-14">
          <mxGeometry width="130" height="20" as="geometry">
            <mxRectangle width="130" height="20" as="alternateBounds" />
          </mxGeometry>
        </mxCell>
        <mxCell id="gi0CET8if4S4NuyeQcct-16" value="&lt;font style=&quot;font-size: 9px;&quot;&gt;dental pain&lt;/font&gt;" style="shape=partialRectangle;html=1;whiteSpace=wrap;connectable=0;strokeColor=inherit;overflow=hidden;fillColor=none;top=0;left=0;bottom=0;right=0;pointerEvents=1;" vertex="1" parent="gi0CET8if4S4NuyeQcct-14">
          <mxGeometry x="130" width="130" height="20" as="geometry">
            <mxRectangle width="130" height="20" as="alternateBounds" />
          </mxGeometry>
        </mxCell>
        <mxCell id="gi0CET8if4S4NuyeQcct-17" value="" style="shape=tableRow;horizontal=0;startSize=0;swimlaneHead=0;swimlaneBody=0;strokeColor=inherit;top=0;left=0;bottom=0;right=0;collapsible=0;dropTarget=0;fillColor=none;points=[[0,0.5],[1,0.5]];portConstraint=eastwest;" vertex="1" parent="gi0CET8if4S4NuyeQcct-1">
          <mxGeometry y="112" width="260" height="20" as="geometry" />
        </mxCell>
        <mxCell id="gi0CET8if4S4NuyeQcct-18" value="&lt;font style=&quot;font-size: 9px;&quot;&gt;facial pain or pressure&lt;/font&gt;" style="shape=partialRectangle;html=1;whiteSpace=wrap;connectable=0;strokeColor=inherit;overflow=hidden;fillColor=none;top=0;left=0;bottom=0;right=0;pointerEvents=1;" vertex="1" parent="gi0CET8if4S4NuyeQcct-17">
          <mxGeometry width="130" height="20" as="geometry">
            <mxRectangle width="130" height="20" as="alternateBounds" />
          </mxGeometry>
        </mxCell>
        <mxCell id="gi0CET8if4S4NuyeQcct-19" value="&lt;font style=&quot;font-size: 9px;&quot;&gt;cough&lt;/font&gt;" style="shape=partialRectangle;html=1;whiteSpace=wrap;connectable=0;strokeColor=inherit;overflow=hidden;fillColor=none;top=0;left=0;bottom=0;right=0;pointerEvents=1;" vertex="1" parent="gi0CET8if4S4NuyeQcct-17">
          <mxGeometry x="130" width="130" height="20" as="geometry">
            <mxRectangle width="130" height="20" as="alternateBounds" />
          </mxGeometry>
        </mxCell>
        <mxCell id="gi0CET8if4S4NuyeQcct-20" value="" style="shape=tableRow;horizontal=0;startSize=0;swimlaneHead=0;swimlaneBody=0;strokeColor=inherit;top=0;left=0;bottom=0;right=0;collapsible=0;dropTarget=0;fillColor=none;points=[[0,0.5],[1,0.5]];portConstraint=eastwest;" vertex="1" parent="gi0CET8if4S4NuyeQcct-1">
          <mxGeometry y="132" width="260" height="20" as="geometry" />
        </mxCell>
        <mxCell id="gi0CET8if4S4NuyeQcct-21" value="&lt;font style=&quot;font-size: 9px;&quot;&gt;hyposmia or anosmia&lt;/font&gt;" style="shape=partialRectangle;html=1;whiteSpace=wrap;connectable=0;strokeColor=inherit;overflow=hidden;fillColor=none;top=0;left=0;bottom=0;right=0;pointerEvents=1;" vertex="1" parent="gi0CET8if4S4NuyeQcct-20">
          <mxGeometry width="130" height="20" as="geometry">
            <mxRectangle width="130" height="20" as="alternateBounds" />
          </mxGeometry>
        </mxCell>
        <mxCell id="gi0CET8if4S4NuyeQcct-22" value="&lt;font style=&quot;font-size: 9px;&quot;&gt;fever (if subacute or chronic)&lt;/font&gt;" style="shape=partialRectangle;html=1;whiteSpace=wrap;connectable=0;strokeColor=inherit;overflow=hidden;fillColor=none;top=0;left=0;bottom=0;right=0;pointerEvents=1;" vertex="1" parent="gi0CET8if4S4NuyeQcct-20">
          <mxGeometry x="130" width="130" height="20" as="geometry">
            <mxRectangle width="130" height="20" as="alternateBounds" />
          </mxGeometry>
        </mxCell>
        <mxCell id="gi0CET8if4S4NuyeQcct-23" value="" style="shape=tableRow;horizontal=0;startSize=0;swimlaneHead=0;swimlaneBody=0;strokeColor=inherit;top=0;left=0;bottom=0;right=0;collapsible=0;dropTarget=0;fillColor=none;points=[[0,0.5],[1,0.5]];portConstraint=eastwest;" vertex="1" parent="gi0CET8if4S4NuyeQcct-1">
          <mxGeometry y="152" width="260" height="20" as="geometry" />
        </mxCell>
        <mxCell id="gi0CET8if4S4NuyeQcct-24" value="&lt;font style=&quot;font-size: 9px;&quot;&gt;fever ( if acute)&lt;/font&gt;" style="shape=partialRectangle;html=1;whiteSpace=wrap;connectable=0;strokeColor=inherit;overflow=hidden;fillColor=none;top=0;left=0;bottom=0;right=0;pointerEvents=1;" vertex="1" parent="gi0CET8if4S4NuyeQcct-23">
          <mxGeometry width="130" height="20" as="geometry">
            <mxRectangle width="130" height="20" as="alternateBounds" />
          </mxGeometry>
        </mxCell>
        <mxCell id="gi0CET8if4S4NuyeQcct-25" value="&lt;font style=&quot;font-size: 9px;&quot;&gt;fatigue&lt;/font&gt;" style="shape=partialRectangle;html=1;whiteSpace=wrap;connectable=0;strokeColor=inherit;overflow=hidden;fillColor=none;top=0;left=0;bottom=0;right=0;pointerEvents=1;" vertex="1" parent="gi0CET8if4S4NuyeQcct-23">
          <mxGeometry x="130" width="130" height="20" as="geometry">
            <mxRectangle width="130" height="20" as="alternateBounds" />
          </mxGeometry>
        </mxCell>
      </root>
    </mxGraphModel>
  </diagram>
</mxfile>
